<?xml version="1.0" encoding="utf-8"?>
<!-- Generator: Adobe Illustrator 15.1.0, SVG Export Plug-In . SVG Version: 6.00 Build 0)  -->
<!DOCTYPE svg PUBLIC "-//W3C//DTD SVG 1.1//EN" "http://www.w3.org/Graphics/SVG/1.1/DTD/svg11.dtd">
<svg version="1.1" id="Layer_1" xmlns="http://www.w3.org/2000/svg" xmlns:xlink="http://www.w3.org/1999/xlink" x="0px" y="0px"
	 width="90.322px" height="14.416px" viewBox="0 0 90.322 14.416" enable-background="new 0 0 90.322 14.416" xml:space="preserve">
<g>
	<path fill="#F8991D" d="M23.382,12.957V0.073h4.86c0.855,0,1.509,0.041,1.96,0.123c0.633,0.105,1.163,0.306,1.591,0.602
		s0.772,0.71,1.033,1.244s0.391,1.119,0.391,1.758c0,1.096-0.349,2.023-1.046,2.782s-1.957,1.138-3.779,1.138h-3.305v5.238H23.382z
		 M25.087,6.199h3.331c1.102,0,1.884-0.205,2.347-0.615s0.694-0.987,0.694-1.731c0-0.539-0.136-1-0.409-1.384
		s-0.631-0.637-1.077-0.76c-0.287-0.076-0.817-0.114-1.591-0.114h-3.296V6.199z"/>
	<path fill="#F8991D" d="M35.079,12.957V3.624h1.424v1.415c0.363-0.662,0.699-1.099,1.006-1.31s0.646-0.316,1.015-0.316
		c0.533,0,1.075,0.17,1.626,0.51L39.605,5.39c-0.387-0.229-0.773-0.343-1.16-0.343c-0.346,0-0.656,0.104-0.932,0.312
		s-0.472,0.497-0.589,0.866c-0.176,0.563-0.264,1.178-0.264,1.846v4.886H35.079z"/>
	<path fill="#F8991D" d="M47.39,9.951l1.635,0.202c-0.258,0.955-0.735,1.696-1.433,2.224s-1.588,0.791-2.672,0.791
		c-1.365,0-2.448-0.42-3.248-1.261s-1.2-2.021-1.2-3.538c0-1.57,0.404-2.789,1.213-3.656s1.857-1.301,3.146-1.301
		c1.248,0,2.268,0.425,3.059,1.274s1.187,2.045,1.187,3.586c0,0.094-0.003,0.234-0.009,0.422h-6.961
		c0.059,1.025,0.349,1.81,0.87,2.355s1.172,0.817,1.951,0.817c0.58,0,1.075-0.152,1.485-0.457S47.149,10.619,47.39,9.951z
		 M42.195,7.394h5.212c-0.07-0.785-0.27-1.374-0.598-1.767c-0.504-0.609-1.157-0.914-1.96-0.914c-0.727,0-1.337,0.243-1.833,0.729
		S42.248,6.58,42.195,7.394z"/>
	<path fill="#F8991D" d="M53.514,12.957l-3.551-9.333h1.67l2.004,5.59c0.217,0.603,0.416,1.23,0.598,1.88
		c0.141-0.492,0.337-1.084,0.589-1.775l2.074-5.695h1.626l-3.533,9.333H53.514z"/>
	<path fill="#F8991D" d="M59.84,1.892V0.073h1.582v1.819H59.84z M59.84,12.957V3.624h1.582v9.333H59.84z"/>
	<path fill="#F8991D" d="M63.15,8.291c0-1.729,0.48-3.009,1.441-3.841c0.803-0.691,1.781-1.037,2.936-1.037
		c1.283,0,2.332,0.42,3.146,1.261s1.222,2.002,1.222,3.485c0,1.201-0.18,2.146-0.54,2.834s-0.885,1.223-1.573,1.604
		s-1.44,0.571-2.255,0.571c-1.307,0-2.362-0.419-3.168-1.257S63.15,9.866,63.15,8.291z M64.776,8.291
		c0,1.195,0.261,2.09,0.782,2.685s1.178,0.892,1.969,0.892c0.785,0,1.438-0.299,1.96-0.896s0.782-1.509,0.782-2.733
		c0-1.154-0.262-2.029-0.786-2.624s-1.177-0.892-1.956-0.892c-0.791,0-1.447,0.296-1.969,0.888S64.776,7.095,64.776,8.291z"/>
	<path fill="#F8991D" d="M79.777,12.957v-1.371c-0.727,1.055-1.714,1.582-2.962,1.582c-0.551,0-1.064-0.105-1.542-0.316
		s-0.832-0.476-1.063-0.795s-0.395-0.711-0.488-1.174c-0.064-0.311-0.097-0.803-0.097-1.477V3.624h1.582V8.8
		c0,0.826,0.032,1.382,0.097,1.669c0.1,0.416,0.311,0.743,0.633,0.98s0.721,0.355,1.195,0.355s0.92-0.121,1.336-0.364
		s0.711-0.574,0.884-0.993s0.259-1.027,0.259-1.824V3.624h1.582v9.333H79.777z"/>
	<path fill="#F8991D" d="M82.948,10.171l1.564-0.246c0.088,0.627,0.333,1.107,0.734,1.441s0.962,0.501,1.683,0.501
		c0.727,0,1.266-0.147,1.617-0.443s0.527-0.644,0.527-1.042c0-0.357-0.155-0.639-0.466-0.844c-0.217-0.141-0.756-0.319-1.617-0.536
		c-1.16-0.293-1.964-0.546-2.412-0.76s-0.788-0.51-1.02-0.888s-0.348-0.795-0.348-1.252c0-0.416,0.096-0.801,0.286-1.156
		s0.449-0.649,0.777-0.883c0.246-0.182,0.582-0.335,1.007-0.461s0.88-0.189,1.366-0.189c0.732,0,1.376,0.105,1.93,0.316
		s0.962,0.497,1.226,0.857s0.445,0.842,0.545,1.446l-1.547,0.211c-0.07-0.48-0.273-0.855-0.61-1.125s-0.813-0.404-1.429-0.404
		c-0.727,0-1.245,0.12-1.556,0.36s-0.466,0.521-0.466,0.844c0,0.205,0.064,0.39,0.193,0.554c0.129,0.17,0.331,0.311,0.606,0.422
		c0.158,0.059,0.624,0.193,1.397,0.404c1.119,0.299,1.9,0.543,2.343,0.734s0.789,0.467,1.041,0.831S90.7,9.676,90.7,10.215
		c0,0.527-0.153,1.024-0.461,1.49s-0.752,0.826-1.332,1.081s-1.236,0.382-1.969,0.382c-1.213,0-2.137-0.252-2.772-0.756
		S83.124,11.161,82.948,10.171z"/>
</g>
<g id="Shape_1_copy_77_42_">
	<g>
		<polygon fill-rule="evenodd" clip-rule="evenodd" fill="#F8991D" points="0,7.208 10.478,14.416 10.478,0 		"/>
	</g>
</g>
</svg>
