<?xml version="1.0" encoding="utf-8"?>
<!-- Generator: Adobe Illustrator 15.1.0, SVG Export Plug-In . SVG Version: 6.00 Build 0)  -->
<!DOCTYPE svg PUBLIC "-//W3C//DTD SVG 1.1//EN" "http://www.w3.org/Graphics/SVG/1.1/DTD/svg11.dtd">
<svg version="1.1" id="Layer_1" xmlns="http://www.w3.org/2000/svg" xmlns:xlink="http://www.w3.org/1999/xlink" x="0px" y="0px"
	 width="57.108px" height="14.416px" viewBox="0 0 57.108 14.416" enable-background="new 0 0 57.108 14.416" xml:space="preserve">
<g>
	<path fill="#F8991D" d="M0.017,12.957V0.073h1.749l6.768,10.116V0.073h1.635v12.884H8.419L1.652,2.833v10.125H0.017z"/>
	<path fill="#F8991D" d="M19.131,9.951l1.635,0.202c-0.258,0.955-0.735,1.696-1.433,2.224s-1.588,0.791-2.672,0.791
		c-1.365,0-2.448-0.42-3.248-1.261s-1.199-2.021-1.199-3.538c0-1.57,0.404-2.789,1.213-3.656s1.857-1.301,3.146-1.301
		c1.248,0,2.268,0.425,3.059,1.274s1.187,2.045,1.187,3.586c0,0.094-0.003,0.234-0.009,0.422h-6.961
		c0.059,1.025,0.349,1.81,0.87,2.355s1.172,0.817,1.951,0.817c0.58,0,1.075-0.152,1.485-0.457S18.891,10.619,19.131,9.951z
		 M13.937,7.394h5.212c-0.07-0.785-0.27-1.374-0.598-1.767c-0.504-0.609-1.157-0.914-1.96-0.914c-0.727,0-1.338,0.243-1.833,0.729
		S13.99,6.58,13.937,7.394z"/>
	<path fill="#F8991D" d="M21.608,12.957l3.41-4.851l-3.155-4.482h1.978l1.433,2.188c0.27,0.416,0.487,0.765,0.651,1.046
		c0.258-0.387,0.495-0.729,0.712-1.028l1.573-2.206h1.89l-3.226,4.395l3.472,4.939h-1.942l-1.916-2.9l-0.51-0.782l-2.453,3.682
		H21.608z"/>
	<path fill="#F8991D" d="M35.027,11.542l0.229,1.397c-0.445,0.094-0.844,0.141-1.195,0.141c-0.574,0-1.02-0.091-1.336-0.272
		s-0.539-0.42-0.668-0.716s-0.193-0.919-0.193-1.868v-5.37h-1.16v-1.23h1.16V1.312l1.573-0.949v3.261h1.591v1.23h-1.591v5.458
		c0,0.451,0.027,0.741,0.083,0.87s0.146,0.231,0.272,0.308s0.307,0.114,0.541,0.114C34.509,11.604,34.74,11.583,35.027,11.542z"/>
</g>
<g id="Shape_1_copy_76_8_">
	<g>
		<polygon fill-rule="evenodd" clip-rule="evenodd" fill="#F8991D" points="46.631,0 46.631,14.416 57.108,7.208 		"/>
	</g>
</g>
</svg>
